<svg width="24" height="24" viewBox="0 0 24 24" fill="none" xmlns="http://www.w3.org/2000/svg">
<path d="M11.94 19.2C12.36 19.2 12.715 19.055 13.005 18.765C13.295 18.475 13.44 18.12 13.44 17.7C13.44 17.28 13.295 16.925 13.005 16.635C12.715 16.345 12.36 16.2 11.94 16.2C11.52 16.2 11.165 16.345 10.875 16.635C10.585 16.925 10.44 17.28 10.44 17.7C10.44 18.12 10.585 18.475 10.875 18.765C11.165 19.055 11.52 19.2 11.94 19.2ZM12 24C10.34 24 8.78 23.685 7.32 23.055C5.86 22.425 4.59 21.57 3.51 20.49C2.43 19.41 1.575 18.14 0.945 16.68C0.315 15.22 0 13.66 0 12C0 10.34 0.315 8.78 0.945 7.32C1.575 5.86 2.43 4.59 3.51 3.51C4.59 2.43 5.86 1.575 7.32 0.945C8.78 0.315 10.34 0 12 0C13.66 0 15.22 0.315 16.68 0.945C18.14 1.575 19.41 2.43 20.49 3.51C21.57 4.59 22.425 5.86 23.055 7.32C23.685 8.78 24 10.34 24 12C24 13.66 23.685 15.22 23.055 16.68C22.425 18.14 21.57 19.41 20.49 20.49C19.41 21.57 18.14 22.425 16.68 23.055C15.22 23.685 13.66 24 12 24ZM12 21.6C14.68 21.6 16.95 20.67 18.81 18.81C20.67 16.95 21.6 14.68 21.6 12C21.6 9.32 20.67 7.05 18.81 5.19C16.95 3.33 14.68 2.4 12 2.4C9.32 2.4 7.05 3.33 5.19 5.19C3.33 7.05 2.4 9.32 2.4 12C2.4 14.68 3.33 16.95 5.19 18.81C7.05 20.67 9.32 21.6 12 21.6ZM12.12 6.84C12.62 6.84 13.055 7 13.425 7.32C13.795 7.64 13.98 8.04 13.98 8.52C13.98 8.96 13.845 9.35 13.575 9.69C13.305 10.03 13 10.35 12.66 10.65C12.2 11.05 11.795 11.49 11.445 11.97C11.095 12.45 10.92 12.99 10.92 13.59C10.92 13.87 11.025 14.105 11.235 14.295C11.445 14.485 11.69 14.58 11.97 14.58C12.27 14.58 12.525 14.48 12.735 14.28C12.945 14.08 13.08 13.83 13.14 13.53C13.22 13.11 13.4 12.735 13.68 12.405C13.96 12.075 14.26 11.76 14.58 11.46C15.04 11.02 15.435 10.54 15.765 10.02C16.095 9.5 16.26 8.92 16.26 8.28C16.26 7.26 15.845 6.425 15.015 5.775C14.185 5.125 13.22 4.8 12.12 4.8C11.36 4.8 10.635 4.96 9.945 5.28C9.255 5.6 8.73 6.09 8.37 6.75C8.23 6.99 8.185 7.245 8.235 7.515C8.285 7.785 8.42 7.99 8.64 8.13C8.92 8.29 9.21 8.34 9.51 8.28C9.81 8.22 10.06 8.05 10.26 7.77C10.48 7.47 10.755 7.24 11.085 7.08C11.415 6.92 11.76 6.84 12.12 6.84Z" fill="#A8A8A8"/>
</svg>
